Coordinates
version=1
nRows=11
nColumns=40
inDegrees=yes

Units are S.I. units (second, meters, Newtons, ...)
If the header above contains a line with 'inDegrees', this indicates whether rotational values are in degrees (yes) or radians (no).

endheader
time	pelvis_tilt	pelvis_list	pelvis_rotation	pelvis_tx	pelvis_ty	pelvis_tz	hip_flexion_r	hip_adduction_r	hip_rotation_r	knee_angle_r	knee_angle_r_beta	ankle_angle_r	subtalar_angle_r	mtp_angle_r	hip_flexion_l	hip_adduction_l	hip_rotation_l	knee_angle_l	knee_angle_l_beta	ankle_angle_l	subtalar_angle_l	mtp_angle_l	lumbar_extension	lumbar_bending	lumbar_rotation	arm_flex_r	arm_add_r	arm_rot_r	elbow_flex_r	pro_sup_r	wrist_flex_r	wrist_dev_r	arm_flex_l	arm_add_l	arm_rot_l	elbow_flex_l	pro_sup_l	wrist_flex_l	wrist_dev_l
      0.96000000	     20.54174707	      2.71171971	      3.72267105	      1.44157934	      0.98349506	     -0.36027190	     -1.15577266	     -4.80740518	     -6.69146035	     40.17173025	      0.70112896	     -5.66404610	      0.00000000	      0.00000000	    -26.37199646	      4.67395312	      6.68429202	      9.80052750	      0.17105147	     -6.24831176	      0.00000000	      0.00000000	    -33.77408938	     -0.93345297	     -7.99661421	     -2.29316643	    -16.22151016	      9.69335609	     42.97467472	     79.88379249	      0.00000000	      0.00000000	      6.39875577	    -26.21232093	     25.49850701	     54.91388422	     76.65822621	      0.00000000	      0.00000000
      0.96400000	     20.33711319	      2.91364681	      3.92492415	      1.44615105	      0.98284173	     -0.36055635	     -0.55646304	     -4.97469762	     -6.67085740	     39.22951953	      0.68468428	     -5.69062888	      0.00000000	      0.00000000	    -26.53483165	      4.77114176	      6.68153063	      9.68010411	      0.16894969	     -6.14025635	      0.00000000	      0.00000000	    -33.68549416	     -1.02750215	     -8.35460798	     -2.28492982	    -16.11395853	      9.61658304	     42.95972683	     79.84651505	      0.00000000	      0.00000000	      6.58677216	    -26.39039700	     25.62565414	     55.28887011	     76.64588873	      0.00000000	      0.00000000
      0.96800000	     20.19897300	      3.06517993	      4.05602928	      1.45102656	      0.98223305	     -0.36082489	     -0.00443571	     -5.16295569	     -6.81792657	     38.27858324	      0.66808731	     -5.79960029	      0.00000000	      0.00000000	    -26.80928281	      4.81772778	      6.63580215	      9.52074736	      0.16616839	     -6.10933659	      0.00000000	      0.00000000	    -33.62656145	     -1.10851304	     -8.64200426	     -2.27703922	    -16.02937005	      9.46937879	     42.89482292	     79.75751707	      0.00000000	      0.00000000	      6.78643176	    -26.53062034	     25.69575031	     55.53706524	     76.61532790	      0.00000000	      0.00000000
      0.97200000	     20.15605982	      3.16797257	      4.22234092	      1.45611804	      0.98178251	     -0.36100090	      0.31279700	     -5.23291573	     -6.95225786	     37.09620511	      0.64745092	     -6.29088348	      0.00000000	      0.00000000	    -27.33306376	      4.79588565	      6.88962958	      9.09617679	      0.15875823	     -6.39675754	      0.00000000	      0.00000000	    -33.64290130	     -1.12751579	     -8.90450508	     -2.27796170	    -15.88001245	      9.22056777	     42.75391211	     79.56158954	      0.00000000	      0.00000000	      7.03331000	    -26.68513518	     25.93124141	     55.76939991	     76.46209619	      0.00000000	      0.00000000
      0.97600000	     19.99973727	      3.32255862	      4.25625371	      1.46121042	      0.98105756	     -0.36143198	      0.84110089	     -5.42905809	     -7.06035362	     36.04541106	      0.62911110	     -6.49186781	      0.00000000	      0.00000000	    -27.79357956	      4.95032850	      7.14438716	      8.57314292	      0.14962957	     -6.58422763	      0.00000000	      0.00000000	    -33.54168809	     -1.23326692	     -9.07558586	     -2.31789756	    -15.85398797	      9.04903442	     42.69241604	     79.48281852	      0.00000000	      0.00000000	      7.24022059	    -26.72225655	     26.02515743	     55.91719613	     76.35507212	      0.00000000	      0.00000000
      0.98000000	     19.79451062	      3.51871942	      4.27378828	      1.46648003	      0.98007751	     -0.36177438	      1.45429945	     -5.70518836	     -7.19195260	     35.14342161	      0.61336842	     -6.50112922	      0.00000000	      0.00000000	    -28.04018239	      5.13313704	      6.92656820	      8.40889410	      0.14676289	     -6.44110512	      0.00000000	      0.00000000	    -33.36795572	     -1.39764656	     -9.26544027	     -2.38792706	    -15.84362080	      9.03069676	     42.69887860	     79.46035906	      0.00000000	      0.00000000	      7.40980526	    -26.75736256	     26.10263804	     56.12459370	     76.36269248	      0.00000000	      0.00000000
      0.98400000	     19.66457512	      3.62684465	      4.35290116	      1.47144193	      0.97938067	     -0.36201714	      1.90156789	     -5.82037974	     -7.28598943	     33.95623446	      0.59264809	     -7.07240652	      0.00000000	      0.00000000	    -28.45661011	      5.16799728	      7.21095964	      7.99898649	      0.13960865	     -6.58191717	      0.00000000	      0.00000000	    -33.31818410	     -1.45684412	     -9.41994933	     -2.44947944	    -15.74128831	      8.61715813	     42.63677730	     78.98412094	      0.00000000	      0.00000000	      7.70873262	    -26.78842149	     26.32644676	     56.23160219	     76.04152047	      0.00000000	      0.00000000
      0.98800000	     19.39704564	      3.84133939	      4.32304659	      1.47661524	      0.97827802	     -0.36225850	      2.58560302	     -6.09224363	     -7.33474466	     33.01310011	      0.57618729	     -7.28408300	      0.00000000	      0.00000000	    -28.62691045	      5.39636412	      7.07622443	      7.85203444	      0.13704385	     -6.43728298	      0.00000000	      0.00000000	    -33.08774958	     -1.66728596	     -9.58277023	     -2.47901807	    -15.68824602	      8.53564338	     42.58230169	     78.92985866	      0.00000000	      0.00000000	      7.86419846	    -26.84196090	     26.38739201	     56.44464530	     76.01480002	      0.00000000	      0.00000000
      0.99200000	     19.13248821	      3.98357592	      4.36575003	      1.48139273	      0.97728914	     -0.36238205	      3.25452414	     -6.25236557	     -7.40540035	     31.90614514	      0.55686728	     -8.05085422	      0.00000000	      0.00000000	    -28.80120714	      5.50964344	      7.17572507	      7.62223402	      0.13303308	     -6.41156759	      0.00000000	      0.00000000	    -32.92269706	     -1.78795736	     -9.73422288	     -2.43030602	    -15.53395405	      8.23862369	     42.42784992	     78.42051996	      0.00000000	      0.00000000	      8.15003764	    -26.87893041	     26.44610174	     56.51299615	     75.99715211	      0.00000000	      0.00000000
      0.99600000	     18.88010830	      4.16548506	      4.32992473	      1.48662655	      0.97600876	     -0.36277403	      3.95543032	     -6.50869800	     -7.61069387	     31.08496936	      0.54253506	     -8.21635262	      0.00000000	      0.00000000	    -28.96689613	      5.72531052	      6.93420902	      7.51200838	      0.13110928	     -6.25342903	      0.00000000	      0.00000000	    -32.70966490	     -1.97007389	     -9.86208710	     -2.51142956	    -15.56907743	      8.22008721	     42.46934555	     78.31533040	      0.00000000	      0.00000000	      8.29839875	    -26.90847747	     26.51478657	     56.75290124	     76.00116742	      0.00000000	      0.00000000
      1.00000000	     18.60113113	      4.26585912	      4.35799877	      1.49142592	      0.97495400	     -0.36288858	      4.57608269	     -6.61302999	     -7.62139861	     29.82642204	      0.52056927	     -9.20734167	      0.00000000	      0.00000000	    -29.09641532	      5.81053539	      6.96058671	      7.33937139	      0.12809620	     -6.20052412	      0.00000000	      0.00000000	    -32.49936310	     -2.05754476	     -9.95947547	     -2.48432140	    -15.43621690	      8.02426958	     42.32913344	     77.75577263	      0.00000000	      0.00000000	      8.61393187	    -26.92456845	     26.70090386	     56.74964463	     76.01534093	      0.00000000	      0.00000000
